<svg xmlns="http://www.w3.org/2000/svg" viewBox="0 0 2604.42 2960.74"><defs><style>.cls-1{fill:#ffa33e;}.cls-2{opacity:0.3;}.cls-3{fill:#fff;}.cls-4{fill:#f28920;}.cls-5{fill:#d17019;}.cls-6{fill:#ff50b8;}.cls-7{fill:#ef30ab;}.cls-8{opacity:0.5;}.cls-9{fill:#d12081;}.cls-10{fill:#d8d8d8;}.cls-11{fill:#e5388f;}.cls-12{fill:#35dcff;}.cls-13{fill:#1eabf9;}.cls-14{fill:#fffc35;}.cls-15{fill:#ffc136;}.cls-16{fill:#5f5f82;}.cls-17{opacity:0.2;}.cls-18{fill:#000072;}.cls-19{fill:#ff6683;}.cls-20{opacity:0.35;}.cls-21{fill:#ff9cbd;}</style></defs><g id="Capa_2" data-name="Capa 2"><g id="Layer_1" data-name="Layer 1"><circle class="cls-1" cx="1302.21" cy="1302.21" r="1286.22"/><g class="cls-2"><path class="cls-3" d="M2588.43,1302.21c0,10.83-.12,21.66-.44,32.45C2570.8,639.28,2001.76,80.87,1302.22,80.87q-62.34,0-123.22,5.83c.44,45.44-45.52,90.09-109.55,103.44C1004.15,203.76,943,180,926.69,136.54,409.36,294.21,30.4,769.13,16.41,1334.66c-.32-10.79-.44-21.62-.44-32.45C16,718.61,404.65,225.83,937.24,68.56a1271,1271,0,0,1,204.87-42.65A1291.46,1291.46,0,0,1,1302.22,16C2012.59,16,2588.43,591.84,2588.43,1302.21Z"/></g><path class="cls-4" d="M2588.43,1302.21c0,710.37-575.84,1286.21-1286.21,1286.21S16,2012.58,16,1302.21q0-59,5.2-116.62c59,655.73,610,1169.58,1281.05,1169.58s1222.06-513.85,1281-1169.58Q2588.39,1243.19,2588.43,1302.21Z"/><path class="cls-5" d="M1302.21,2604.42c-347.83,0-674.85-135.46-920.8-381.41S0,1650,0,1302.21s135.45-674.85,381.41-920.8S954.38,0,1302.21,0,1977.06,135.45,2223,381.41s381.41,573,381.41,920.8S2469,1977.06,2223,2223,1650,2604.42,1302.21,2604.42Zm0-2572.45C601.8,32,32,601.8,32,1302.21S601.8,2572.45,1302.21,2572.45s1270.23-569.83,1270.23-1270.24S2002.62,32,1302.21,32Z"/><path class="cls-6" d="M1876.21,2331c77.58-48,267.64-151.08,335.82-280.24,110.88-210.05,231.34-302.8,265.88-474.71,47.23-235,7-284.76-30.78-591.69-28.21-229.29-127.89-419.42-306.57-522.86s-303.85-281.89-479.44-328.2c-262.06-69.12-396.92-4.4-564.08,17.23-172.41,22.31-358.13,88.56-482.27,174.61-140,97.05-171.26,233.71-321.61,393.55C159.15,861.16,107,996.58,141.29,1259c27,206.41-8.6,324.35,52.66,493.48,57.37,158.38,162.69,197.62,291.52,422.37C562.61,2309.46,713.26,2349.2,904.89,2425c133.06,52.66,85.1,288.23,210.64,295.28,149.4,8.39,93.1-227.1,209.14-238.8,165.26-16.65,22.2,455.09,207,463.09,212.65,9.19,52.21-401.86,190.76-525.79C1775.82,2371.06,1834.54,2356.76,1876.21,2331Z"/><path class="cls-7" d="M2496.75,1331c-3.08,36.49-9.12,77-18.83,125.3-34.57,171.9-155,264.66-265.9,474.73-68.18,129.13-258.22,232.24-335.8,280.2-1.52.92-3,1.88-4.55,2.84l-115.91-385.88c178.77-108.75,294.08-280.17,294.08-473,0-328.6-334.72-595-747.62-595s-747.66,266.38-747.66,595c0,179.46,99.84,340.36,257.71,449.47L687.69,2219.21c-87.92-39.77-157.47-85.93-202.23-164-128.81-224.77-234.12-264-291.52-422.41-61.27-169.1-25.65-287-52.67-493.47-3.68-28.29-6.4-55.07-8.08-80.57-4.55,58.19-1.91,123.86,8.08,200.31,27,206.39-8.6,324.33,52.67,493.47,57.4,158.39,162.71,197.64,291.52,422.37C562.6,2309.45,713.27,2349.22,904.87,2425c133.09,52.68,85.13,288.24,210.67,295.28,149.39,8.39,93.08-227.09,209.14-238.8,165.26-16.63,22.18,455.1,207,463.09,212.62,9.19,52.2-401.86,190.76-525.76,53.4-47.76,112.11-62.07,153.79-87.85,77.58-48,267.62-151.07,335.8-280.24,110.91-210,231.33-302.79,265.9-474.69C2499.18,1470.31,2502.74,1402.09,2496.75,1331Zm-787.36,997.16c-127.09,222.87,20.31,531.13-165.29,537-179.29,5.63-54.16-520-219.42-503.34-116.06,11.67-46.44,315.25-209.22,308.66-125.62-5.08-77.5-312.5-210.59-365.18-17.86-7.07-23.5-49.84-11.79-71.62,49.6-92.4,22.3-210.54,84.37-342.43,98.24,37.77,208.39,58.91,324.77,58.91,101.84,0,198.87-16.19,287.32-45.52,54.28,126.49,46.5,232.89,78.3,329C1684.47,2284,1716,2316.63,1709.39,2328.18Z"/><g class="cls-8"><path class="cls-3" d="M2498.74,1419.31c-3.51-99-28.13-190.4-51.75-382.4-28.22-229.29-127.9-419.41-306.59-522.84S1836.54,232.18,1661,185.86c-262.06-69.1-396.91-4.4-564.09,17.22-172.41,22.31-358.1,88.57-482.24,174.62-140,97-171.25,233.72-321.61,393.55C191.67,879,137.07,982.72,131.4,1140.46,126.12,952.34,181,838,293.14,718.69,443.5,558.87,474.75,422.18,614.79,325.14c124.1-86,309.83-152.31,482.24-174.61,167.18-21.62,302-86.33,564.09-17.23C1836.7,179.62,1961.87,358,2140.56,461.51s278.37,293.55,306.59,522.84C2474.84,1209.53,2503.9,1296.25,2498.74,1419.31Z"/></g><g class="cls-8"><path class="cls-3" d="M2294.79,1624.76c35.73,48.9-9.87,219.66-105.6,186.2C2098.22,1779.17,2262.32,1580.33,2294.79,1624.76Z"/></g><g class="cls-8"><path class="cls-3" d="M2162.92,755.3c135.89,127.38,256,531.86,179.83,729.35-86.57,224.42-10.37-157.37-160.81-493.37C2115.39,842.65,2067.47,665.82,2162.92,755.3Z"/></g><g class="cls-8"><path class="cls-3" d="M421,956.72C483.85,658.53,772.36,443,1000.11,421.2c181.25-17.31-151.65,79.24-377.27,391.57C527.48,944.78,393.94,1084.73,421,956.72Z"/></g><path class="cls-9" d="M1538.44,2960.74c-2.46,0-5-.06-7.47-.16-109-4.72-118.41-142.79-126.69-264.6-5.41-79.68-11-162.06-43.19-189.25-9.12-7.7-20.52-10.76-34.81-9.3-40.27,4.06-54.87,41.39-74.15,102.39-19.94,63.12-44.82,141.78-137.49,136.46-74.74-4.19-96.59-75.52-117.71-144.49-19.39-63.29-39.44-128.74-97.93-151.89-27.32-10.81-53.82-20.89-79.45-30.64-155.88-59.3-279-106.15-347.95-226.42C411.16,2077.4,356.51,2013.94,308.29,1958c-52.72-61.22-98.26-114.09-129.37-200-38.33-105.81-39.63-191-41.14-289.62-1-62.82-2-127.79-12.35-207.23-32.84-251.13,8-395.94,156.08-553.37,64.47-68.54,107.62-134.11,145.68-192,52-79,96.84-147.19,178.48-203.78C730.41,225.53,917.9,157.59,1095,134.67c39.12-5.06,75.77-12.38,114.58-20.13,124-24.75,252.17-50.36,455.63,3.3,107.49,28.35,194.56,102.76,286.74,181.53,61.46,52.52,125,106.83,196.63,148.29C2323.7,549.06,2432.43,734,2463,982.4c10.29,83.66,20.56,146.85,29.62,202.6,23.87,146.89,35.85,220.62,1,394.2-21.62,107.55-76,185.3-139,275.32-40,57.16-85.31,122-128.46,203.7-62.69,118.77-218.79,212.51-312.06,268.51-11,6.61-20.93,12.58-29.5,17.87h0c-15.39,9.52-32.53,17.35-50.67,25.64-31.84,14.54-67.91,31-100.87,60.5-56.34,50.4-58.82,157.65-61.22,261.38-2.3,99.62-4.48,193.72-54.24,240.28C1597.5,2951.22,1570.89,2960.74,1538.44,2960.74ZM1333,2465.11c18.84,0,35.19,5.76,48.73,17.19,42.54,35.93,48.33,121.22,54.46,211.51,7.73,113.74,15.71,231.34,96.17,234.82,27.33,1.2,48.08-5.22,63.42-19.58,40-37.38,42-125,44.12-217.67,2.55-110.54,5.2-224.84,71.87-284.47,36.57-32.71,75-50.26,108.89-65.75,17.21-7.87,33.46-15.29,47.15-23.76h0c8.66-5.35,18.72-11.39,29.85-18.08,84.48-50.72,241.72-145.15,300.24-256,44.09-83.52,90-149.18,130.54-207.11,63.42-90.67,113.51-162.29,133.81-263.28,33.74-167.9,22.07-239.71-1.18-382.79-8.66-53.26-19.43-119.54-29.8-203.81-29.29-238.11-132.59-414.8-298.71-511-74.15-42.93-138.83-98.2-201.38-151.65-89.33-76.33-173.7-148.43-274.12-174.92-196.3-51.78-320.81-26.91-441.21-2.87-37.63,7.52-76.54,15.29-116.75,20.49-172.32,22.3-354.41,88.17-475.21,171.9C547.34,391.34,504,457.15,453.9,533.35c-38.78,58.94-82.73,125.74-149.1,196.3C184.35,857.71,121.58,985,157.14,1257c10.62,81.26,11.68,150.12,12.61,210.89,1.46,95.75,2.73,178.44,39.23,279.21,29.12,80.38,70.78,128.77,123.53,190,49.16,57.07,104.87,121.76,166.83,229.85,63.26,110.35,181.67,155.4,331.58,212.43,25.73,9.79,52.33,19.91,79.85,30.81,72.79,28.8,96.13,105,116.73,172.25,22.67,74,40,119.18,88.93,121.93,63.42,3.56,82-40.76,105.22-114.17,17.49-55.36,37.31-118.11,101.42-124.57A99.15,99.15,0,0,1,1333,2465.11Z"/><ellipse class="cls-3" cx="1504.33" cy="311.2" rx="35.55" ry="117.42" transform="translate(681.1 1608.18) rotate(-69.28)"/><path class="cls-10" d="M1394.72,269.06c-9.73,25.71,36.63,51.83,97.27,74.76s109.84,41.54,122.4,8.32c4.15-11,1.56-20.33-5.91-28.78-15.84,25.56-62.73,7.82-119.73-13.73-39.64-15-73.18-31.35-89-48.07A18.76,18.76,0,0,0,1394.72,269.06Z"/><path class="cls-11" d="M1584.75,378.75c-24.88,0-58.86-12.85-95.81-26.82-80-30.27-112.42-57.31-101.91-85.1h0c10.51-27.78,52.67-26.62,132.71,3.64,63,23.81,117.3,44.37,101.9,85.09C1615.28,372.39,1602.26,378.75,1584.75,378.75ZM1402,272.49c-2.93,7.75.23,29.55,92.61,64.49,63.69,24.08,103,37,112.1,12.93s-28.92-40.4-92.6-64.48c-92.38-34.94-109.18-20.69-112.11-12.94Z"/><ellipse class="cls-3" cx="2293.76" cy="888.76" rx="35.55" ry="117.42" transform="translate(61.14 1921.55) rotate(-46)"/><path class="cls-10" d="M2209.72,806.73c-19.09,19.78,13.17,62.09,59.81,107.12s84.48,81.57,109.15,56c8.15-8.44,9.47-18.06,6-28.78-24.65,17.22-60.72-17.6-104.56-59.93-30.49-29.44-54.83-57.71-62.71-79.3A18.7,18.7,0,0,0,2209.72,806.73Z"/><path class="cls-11" d="M2359.64,987c-26.87,0-59.62-31.62-96.12-66.86-26.6-25.69-44.86-46.82-55.81-64.6-14.51-23.57-15.91-41.68-4.17-53.84h0c11.74-12.15,29.89-11.39,54,2.28,18.15,10.32,39.91,27.83,66.51,53.51,48.41,46.74,90.22,87.11,60,118.44C2376.55,983.58,2368.4,987,2359.64,987ZM2224.72,809.08q-6.12,0-9.68,3.67h0c-6,6.24-3.91,17.8,6.29,34.36,10.09,16.4,28,37.08,53.29,61.48,49,47.29,80,74.68,97.87,56.18s-10.6-48.54-59.58-95.83c-25.27-24.4-46.57-41.59-63.32-51.11C2239.33,812,2231,809.08,2224.72,809.08Z"/><ellipse class="cls-3" cx="2049.85" cy="1604.72" rx="117.42" ry="35.55" transform="translate(-100.07 136.77) rotate(-3.73)"/><path class="cls-10" d="M1932.62,1611.72c1.79,27.43,54.8,32,119.5,27.81s117.18-7.64,114.87-43.09c-.77-11.71-7-19.15-17.3-23.76-3.84,29.83-53.87,33.09-114.68,37.06-42.29,2.75-79.59,1.75-100.86-7A18.9,18.9,0,0,0,1932.62,1611.72Z"/><path class="cls-11" d="M2013.93,1649.56c-18.57,0-34-1.18-46.58-3.55-27.2-5.12-41.55-16.26-42.65-33.13-1.93-29.65,36.94-46.05,122.32-51.62,67.15-4.37,125.15-8.15,128,35.3s-55.15,47.23-122.29,51.61C2038.48,1649.1,2025.58,1649.56,2013.93,1649.56Zm89.29-74.74c-15.57,0-34.08,1-55.15,2.4-98.57,6.42-108,26.35-107.42,34.62.57,8.65,10.54,14.86,29.65,18.46,18.92,3.55,46.29,4.21,81.34,1.92,68-4.44,109.08-9,107.41-34.62C2157.89,1579.91,2137.84,1574.82,2103.22,1574.82Z"/><ellipse class="cls-3" cx="1635.87" cy="1970.37" rx="117.42" ry="35.55" transform="translate(-901.51 1623.82) rotate(-42.52)"/><path class="cls-10" d="M1548.89,2049.27c18.58,20.26,62.77-9.37,110.55-53.19s86.55-79.37,62.54-105.55c-7.93-8.65-17.45-10.55-28.36-7.68,15.69,25.65-21.26,59.54-66.17,100.72-31.24,28.65-60.94,51.23-83,57.78A18.85,18.85,0,0,0,1548.89,2049.27Z"/><path class="cls-11" d="M1564.9,2064.38a27.81,27.81,0,0,1-21.46-9.25h0c-20.08-21.89-.06-59,63-116.85,49.6-45.49,92.43-84.77,121.86-52.67s-13.4,71.37-63,116.85C1620,2044.05,1587.19,2064.38,1564.9,2064.38Zm-9.68-20.05c5.6,6.09,26.49,13.1,99.27-53.65,50.19-46,79.4-75.33,62-94.27s-49.09,7.63-99.26,53.64c-72.8,66.76-67.64,88.17-62,94.28Z"/><ellipse class="cls-3" cx="573.56" cy="1253.35" rx="117.42" ry="35.55" transform="translate(-683.02 686.91) rotate(-41.15)"/><path class="cls-10" d="M484.71,1330.14c18.09,20.7,63-7.86,111.8-50.52s88.43-77.27,65.06-104c-7.72-8.84-17.19-11-28.17-8.37,15.07,26-22.68,59-68.57,99.11-31.91,27.88-62.15,49.75-84.33,55.77A18.73,18.73,0,0,0,484.71,1330.14Z"/><path class="cls-11" d="M501.25,1345.64c-9.12,0-16.45-3.27-22.13-9.77h0c-19.54-22.37,1.36-59,65.79-115.31,24.25-21.18,47.15-41.19,66.8-52.23,24.08-13.53,43-12.7,56.3,2.5,28.65,32.79-15.12,71-65.8,115.31C556.5,1326.08,523.53,1345.64,501.25,1345.64Zm-10.09-20.29c5.45,6.24,26.16,13.73,100.54-51.25,51.27-44.8,81.18-73.39,64.27-92.75-5.67-6.49-14.43-11.46-36.43.91-18.21,10.23-40.5,29.72-64.11,50.34-74.37,65-69.72,86.51-64.27,92.75Z"/><ellipse class="cls-3" cx="1101.45" cy="2249.98" rx="35.55" ry="117.42" transform="translate(-1402.78 2183.28) rotate(-62.39)"/><path class="cls-10" d="M997.69,2195c-12.74,24.36,30.14,55.85,87.59,85.9s104.06,54.42,120.52,23c5.44-10.4,4-20-2.41-29.29-18.79,23.48-63.22.24-117.22-28-37.55-19.64-68.89-39.9-82.53-58.39A18.7,18.7,0,0,0,997.69,2195Z"/><path class="cls-11" d="M1180.58,2327.17c-25.5,0-60.7-18.41-99.31-38.6-75.82-39.66-104.71-70.39-90.95-96.71h0c13.77-26.32,55.5-20.12,131.31,19.53,59.65,31.2,111.13,58.13,91,96.72C1205.47,2321.7,1194.46,2327.17,1180.58,2327.17ZM997.4,2195.56l7.09,3.71c-3.84,7.34-3.32,29.35,84.19,75.13,60.33,31.56,97.83,49.09,109.74,26.29s-23.85-43.57-84.17-75.11c-87.54-45.79-105.92-33.65-109.76-26.31Z"/><ellipse class="cls-3" cx="898.61" cy="372.68" rx="117.42" ry="35.55" transform="matrix(0.8, -0.6, 0.6, 0.8, -43.72, 614.38)"/><path class="cls-10" d="M804.33,442.7c16.51,22,63.38-3.18,115.23-42.12s93.89-70.53,72.56-98.93c-7-9.38-16.34-12.2-27.48-10.42,13.11,27.07-27,57.18-75.7,93.77-33.89,25.46-65.66,45-88.22,49.4A18.75,18.75,0,0,0,804.33,442.7Z"/><path class="cls-11" d="M822.67,459.49c-10.56,0-18.6-3.84-24.34-11.48h0c-17.84-23.76,5.72-58.75,74.13-110.14,25.74-19.34,50-37.6,70.47-47.16,25-11.72,43.84-9.47,56,6.66s9,34.83-9.2,55.59c-14.87,16.94-39.18,35.21-64.93,54.54C878.35,442.36,844.93,459.49,822.67,459.49Zm-11.55-21.08c5,6.62,25.07,15.62,104-43.69,25.06-18.83,48.74-36.61,62.51-52.3,16.65-19,13.61-28.57,8.44-35.45s-13.55-12.48-36.4-1.78c-18.92,8.86-42.59,26.64-67.65,45.46-79,59.32-75.92,81.13-70.94,87.76Z"/><ellipse class="cls-12" cx="2026.18" cy="536.28" rx="35.55" ry="117.42" transform="translate(683.1 2145.36) rotate(-64.97)"/><path class="cls-13" d="M2132.86,585.39c-11.63,24.9-62.68,9.93-121.43-17.5S1905,518.21,1920.05,486c5-10.63,13.47-15.31,24.74-15.86-7.26,29.19,38.17,50.4,93.39,76.18,38.4,17.93,73.52,30.53,96.5,30.16A18.83,18.83,0,0,1,2132.86,585.39Z"/><path class="cls-11" d="M2106.93,606.68c-22.23,0-54.9-10.27-99.17-30.94-61-28.47-113.64-53.06-95.22-92.51,8.53-18.29,26.5-24.35,53.39-18,21.94,5.15,48.23,17.43,78.66,31.64,33.51,15.64,57.64,29.69,73.78,42.95,21.38,17.57,28.6,34.24,21.45,49.56C2134.43,600.89,2123.63,606.68,2106.93,606.68Zm-160.16-128c-12.41,0-17,5.49-19.75,11.32-10.87,23.29,25.8,42.46,87.5,71.26,89.49,41.78,107.31,28.83,110.81,21.33,3.67-7.86-2.09-18.1-17.11-30.45s-38.56-26-70.39-40.81c-28.4-13.27-55.23-25.79-75.55-30.57A69.3,69.3,0,0,0,1946.77,478.67Z"/><ellipse class="cls-12" cx="1603.31" cy="600.52" rx="35.55" ry="117.42" transform="translate(380.91 1799.25) rotate(-64.97)"/><path class="cls-13" d="M1710,649.62c-11.62,24.91-62.68,9.94-121.43-17.49s-106.4-49.68-91.38-81.86c5-10.63,13.48-15.31,24.75-15.86-7.26,29.19,38.17,50.4,93.39,76.18,38.4,17.92,73.52,30.53,96.49,30.16A18.53,18.53,0,0,1,1710,649.62Z"/><path class="cls-11" d="M1684.06,670.92c-22.23,0-54.9-10.27-99.17-30.94-30.44-14.21-56.73-26.49-74.77-40-22.11-16.56-29-34.23-20.45-52.51,18.41-39.46,71.08-14.87,132.06,13.6,33.5,15.64,57.63,29.69,73.77,42.95,21.38,17.57,28.6,34.24,21.45,49.56C1711.56,665.12,1700.75,670.92,1684.06,670.92ZM1524.18,543c-9.66,0-16.38,3.41-20,11.22s-4.64,17.83,15.55,33c16.72,12.52,43.54,25,72,38.3,89.49,41.79,107.3,28.83,110.81,21.32,3.67-7.85-2.09-18.1-17.11-30.44s-38.56-26-70.39-40.82C1574,556.41,1543.32,543,1524.18,543Z"/><ellipse class="cls-12" cx="2366.5" cy="1587.6" rx="117.42" ry="35.55" transform="translate(758.91 3940.57) rotate(-89.51)"/><path class="cls-13" d="M2366.86,1470.16c27.49.24,35.07,52.9,34.52,117.73s-1,117.43-36.51,117.13c-11.73-.1-19.52-5.9-24.7-15.93,29.56-5.52,30-55.65,30.5-116.59.36-42.38-2.75-79.56-12.64-100.31A18.86,18.86,0,0,1,2366.86,1470.16Z"/><path class="cls-11" d="M2365.82,1713h-.38c-20.18-.17-33.16-14-38.58-41.08-4.43-22.1-4.18-51.1-3.9-84.7.72-85.29,14.81-125,44.33-125h.28c29.7.25,43.2,40.22,42.48,125.78-.28,32.19-.53,62.6-5.34,84.62C2398.87,1699.41,2385.78,1713,2365.82,1713Zm1.53-234.84c-8.33,0-27.57,10.75-28.4,109.2-.27,31.34-.52,61,3.58,81.42,5,24.75,14.43,28.16,23,28.23s18.15-3.17,23.53-27.84c4.44-20.4,4.69-50,5-81.35.84-98.76-18.34-109.59-26.63-109.66Z"/><ellipse class="cls-12" cx="280.07" cy="1311.71" rx="117.42" ry="35.55" transform="translate(-980.55 853.61) rotate(-57.98)"/><path class="cls-13" d="M341.81,1211.81c23.3,14.57,2.22,63.42-32.16,118.39s-62.27,99.56-92.38,80.73c-10-6.22-13.56-15.24-12.73-26.49,28.08,10.76,54.67-31.75,87-83.42,22.48-35.93,39.27-69.25,41.7-92.1A18.74,18.74,0,0,1,341.81,1211.81Z"/><path class="cls-11" d="M232.23,1423.86c-6.08,0-12.27-1.82-18.66-5.82-36.91-23.09-6.1-72.36,29.58-129.41,45.38-72.55,78.24-99,103.43-83.25h0c25.18,15.75,15.78,56.88-29.59,129.42C287.48,1382,261.29,1423.86,232.23,1423.86Zm99.9-206.53c-10.83,0-33.3,12.43-75.42,79.77-36.1,57.73-56.45,93.76-34.66,107.39s45.28-20.44,81.39-78.17c52.37-83.73,41.68-103,34.66-107.39A11,11,0,0,0,332.13,1217.33Z"/><ellipse class="cls-12" cx="456.46" cy="1690.68" rx="35.55" ry="117.42" transform="translate(-1239.34 1253.63) rotate(-60.44)"/><path class="cls-13" d="M558.92,1748.06c-13.56,23.91-63.27,5-119.66-27s-102.15-57.93-84.62-88.83c5.78-10.21,14.64-14.19,25.91-13.85-9.54,28.52,34.07,53.26,87.08,83.32,36.86,20.91,70.87,36.25,93.81,37.7A18.73,18.73,0,0,1,558.92,1748.06Z"/><path class="cls-11" d="M536.18,1767.36a90.55,90.55,0,0,1-23.45-3.57c-20.15-5.47-45.59-17-77.75-35.24-28-15.88-54.45-30.88-71.37-45.78-20.73-18.26-26.19-36.41-16.24-54S375.71,1606.63,402,1615c21.46,6.87,46.7,21.19,75.92,37.76,74.43,42.21,102.27,73.91,87.61,99.75C560,1762.42,550.11,1767.36,536.18,1767.36ZM378.9,1626.84c-10.24,0-14.71,4.72-17.62,9.85-4.25,7.49-6,17.4,12.9,34.09,15.67,13.8,41.42,28.4,68.69,43.87,30.55,17.33,55.47,28.67,74,33.71,18.76,5.1,30.45,3.85,34.73-3.7,4.08-7.2,4.32-29.23-81.59-78-27.27-15.47-53-30.07-72.91-36.44C389.57,1627.85,383.62,1626.84,378.9,1626.84Z"/><ellipse class="cls-12" cx="1000.31" cy="1955.19" rx="117.42" ry="35.55" transform="translate(-386.11 251.89) rotate(-12.05)"/><path class="cls-13" d="M1115,1930.05c5.74,26.88-44,45.71-107.43,59.25s-114.84,24.51-122.25-10.22c-2.45-11.48,1.51-20.34,10.18-27.57,11.8,27.66,60.83,17.19,120.43,4.47,41.45-8.85,77.07-20,95.17-34.11A18.69,18.69,0,0,1,1115,1930.05Z"/><path class="cls-11" d="M925.16,2010.93c-27.34,0-43.32-9.94-47.5-29.56s6.46-35.41,31.72-46.58c20.62-9.12,50.35-15.47,81.84-22.19,36.15-7.72,63.85-11,84.75-10.21,27.65,1.13,43.46,10.09,47,26.61s-7.25,31.17-32,43.49c-18.7,9.29-45.37,17.56-81.54,25.28-31.48,6.72-61.22,13.07-83.76,13.16Zm144.42-92.67c-18.76,0-44,3.35-75,10-30.66,6.54-59.61,12.72-78.71,21.17-23.08,10.21-24.36,20.19-22.56,28.62s7,16.92,31.82,16.92h.46c20.89-.09,49.84-6.27,80.49-12.82,34.35-7.33,60.51-15.39,77.75-24,17.42-8.66,25.33-17.34,23.51-25.83s-12.57-13.18-32-14C1073.48,1918.29,1071.57,1918.26,1069.58,1918.26Z"/><ellipse class="cls-12" cx="2026.08" cy="1003.95" rx="117.42" ry="35.55" transform="translate(-226.5 1200.96) rotate(-31.36)"/><path class="cls-13" d="M2126,942.3c14.3,23.47-26.43,57.7-81.8,91.44s-100.28,61.11-118.76,30.78c-6.11-10-5.29-19.7.49-29.39,20.29,22.2,63.1-3.89,115.14-35.6,36.19-22,66.13-44.32,78.54-63.66A18.82,18.82,0,0,1,2126,942.3Z"/><path class="cls-11" d="M1949.6,1086.08c-13.52,0-23.77-5.63-30.62-16.86-10.5-17.23-5.61-35.55,14.54-54.45,16.43-15.42,41.2-30.51,69.89-48,31.58-19.24,56.64-31.56,76.62-37.66,26.47-8.07,44.35-4.85,53.14,9.58h0c15.46,25.37-11.37,57.92-84.43,102.45-28.7,17.48-53.47,32.58-74.71,40.12Q1960.44,1086.08,1949.6,1086.08ZM2105,940.71q-8.17,0-20.28,3.69c-18.42,5.62-43,17.74-73,36-26.78,16.32-52.06,31.72-67.29,46-18.4,17.26-16.3,27.11-11.82,34.47s12.27,13.73,36,5.29c19.68-7,45-22.39,71.73-38.7,84.34-51.4,83.42-73.41,79.11-80.48h0C2117,942.81,2112.09,940.71,2105,940.71Z"/><ellipse class="cls-14" cx="1163.83" cy="490.46" rx="35.55" ry="116.37" transform="translate(567.03 1603.51) rotate(-84.65)"/><path class="cls-15" d="M1279.71,501.33c-2.56,27.37-55.21,30.5-119.18,24.52S1044.65,515,1048,479.64c1.1-11.69,7.48-19,17.82-23.28,2.94,29.92,52.42,34.55,112.55,40.18,41.81,3.91,78.79,3.93,100.12-4.18A18.91,18.91,0,0,1,1279.71,501.33Z"/><path class="cls-11" d="M1208.84,536.42c-14.21,0-30.5-.87-49.06-2.6-33.16-3.11-61.79-5.79-83.15-12.42-26.18-8.14-38.5-22.44-36.62-42.53,4.06-43.35,61.44-38,127.88-31.76,36.5,3.41,63.71,8.5,83.2,15.53,25.84,9.33,38.14,22.59,36.56,39.41s-16.12,27.57-43.24,31.94A225.93,225.93,0,0,1,1208.84,536.42ZM1103.75,459c-29.32,0-46.3,5.15-47.82,21.36-.81,8.58,1.59,18.36,25.45,25.77,19.76,6.14,49,8.87,79.88,11.77,34.66,3.24,61.77,3.35,80.61.31,19-3.07,29.06-9,29.87-17.65s-8-16.34-26.08-22.88c-18-6.48-44.61-11.41-79.26-14.65C1141.8,460.72,1120.71,459,1103.75,459Z"/><ellipse class="cls-14" cx="2218.74" cy="1294.49" rx="35.55" ry="116.37" transform="translate(-316.85 1705.99) rotate(-39.48)"/><path class="cls-15" d="M2292.72,1384.34c-21.22,17.47-60.56-17.65-101.41-67.25s-74-89.83-46.58-112.41c9.06-7.46,18.72-8.06,29.07-3.77-19.14,23.18,12.45,61.53,50.84,108.15,26.71,32.41,52.77,58.65,73.55,68.07A18.91,18.91,0,0,1,2292.72,1384.34Z"/><path class="cls-11" d="M2279.93,1396.91c-10.11,0-21.9-4.87-35.26-14.58-16.76-12.18-36.24-31.86-59.54-60.15-42.43-51.51-79.07-96-45.46-123.68s70.24,16.8,112.67,68.3c23.31,28.3,38.9,51.19,47.64,70,11.6,24.9,10.86,43-2.17,53.71h0A27.31,27.31,0,0,1,2279.93,1396.91Zm-118.34-190.49a18.05,18.05,0,0,0-11.76,4.42c-19.84,16.35,4.76,49.13,47.64,101.17,22.12,26.86,41.17,46.17,56.6,57.39s26.87,14.27,33.57,8.74h0c6.7-5.52,6-17.16-2.15-34.62-8.06-17.3-23.36-39.69-45.48-66.54C2205,1234.49,2180.28,1206.42,2161.59,1206.42Z"/><ellipse class="cls-14" cx="480.76" cy="779.72" rx="116.37" ry="35.55" transform="translate(-302.3 304.41) rotate(-27.09)"/><path class="cls-15" d="M584.39,726.75c12.51,24.47-30.23,55.35-87.44,84.61s-103.62,53-119.79,21.37c-5.34-10.45-3.85-20,2.56-29.2,18.52,23.67,62.76,1,116.53-26.45,37.4-19.13,68.62-39,82.27-57.23A19,19,0,0,1,584.39,726.75Z"/><path class="cls-11" d="M403.24,855.66c-15.5,0-26.63-6.46-33.2-19.31-9.19-18-3-35.81,18.27-53.07,17.37-14.07,43-27.16,72.63-42.33,47.53-24.3,112.77-52.59,130.55-17.85h0c17.77,34.75-43.37,71.08-90.9,95.39-29.65,15.16-55.26,28.26-76.84,34.11A79,79,0,0,1,403.24,855.66ZM559.67,723c-15,0-42.25,7-91.45,32.17-27.66,14.14-53.77,27.5-69.85,40.52-19.42,15.72-18,25.68-14.1,33.36s11.18,14.63,35.3,8.1c20-5.41,46.09-18.77,73.74-32.91,87.09-44.54,87.72-66.51,83.94-73.88h0C575.61,727.17,571.25,723,559.67,723Z"/><ellipse class="cls-14" cx="1329.3" cy="2048.03" rx="35.55" ry="116.37" transform="translate(-938.58 1143.5) rotate(-35.27)"/><path class="cls-15" d="M1396.48,2143.06c-22.44,15.87-59.09-22-96.19-74.51s-67.2-95-38.21-115.52c9.58-6.78,19.26-6.67,29.27-1.63-20.79,21.71,7.9,62.28,42.77,111.58,24.25,34.3,48.32,62.38,68.35,73.29A18.86,18.86,0,0,1,1396.48,2143.06Z"/><path class="cls-11" d="M1385,2154.77c-29.65,0-65.35-44.95-91.26-81.6-38.54-54.48-71.81-101.53-36.26-126.68s68.82,21.91,107.35,76.39c30.83,43.59,68.13,104.15,36.27,126.69h0A27.36,27.36,0,0,1,1385,2154.77Zm-107.57-198.83a18.12,18.12,0,0,0-10.72,3.61c-21,14.83,1.14,49.34,40.08,104.39,56.48,79.87,78.3,77.36,85.08,72.57s16.39-24.53-40.09-104.4C1319.25,1986.1,1296.34,1955.94,1277.44,1955.94Z"/><ellipse class="cls-14" cx="1604.26" cy="2288.44" rx="116.37" ry="35.55" transform="translate(-615.68 590.65) rotate(-17.56)"/><path class="cls-15" d="M1715.23,2253.35c8.29,26.2-39,49.58-100.24,69s-111,35.11-121.68,1.25c-3.54-11.19-.49-20.37,7.36-28.38,14.35,26.42,61.73,11.43,119.3-6.79,40-12.68,74.12-27.06,90.61-42.82A18.85,18.85,0,0,1,1715.23,2253.35Z"/><path class="cls-11" d="M1525.56,2351.34c-19.7,0-34-6.77-39.87-25.38-13.13-41.51,41.8-58.89,105.41-79,50.92-16.11,120-33.22,131.73,4h0c11.77,37.21-54.53,62.93-105.43,79C1582.29,2341.06,1549.82,2351.34,1525.56,2351.34Zm154.62-106.6c-16.49,0-42.68,4.27-84.23,17.43-64.3,20.35-102.77,34.47-95,59s47.35,13.92,111.64-6.43c93.26-29.5,97.52-51.07,95-59h0C1706.2,2251.36,1700.7,2244.74,1680.18,2244.74Z"/><path class="cls-16" d="M1000.11,1747.2C863.19,1821.06,885,2010.38,850.4,2159.49c-39.49,170.22-228.13,202.72-332.81,65.63-16.34-21.42-29.25-45.76-38.88-72.3-59.63-163.58,3.23-409.58,128.81-558.13,35.33-41.81,75.62-75.9,119.58-98.24Z"/><g class="cls-17"><path class="cls-18" d="M1000.11,1747.2C863.19,1821.06,885,2010.38,850.4,2159.49c-39.49,170.22-228.13,202.72-332.81,65.63-16.34-21.42-29.25-45.76-38.88-72.3,66.1,76.9,173.49,101.88,242.83,58.75,104.36-64.86,142.93-313.14,53-393.07-94.52-84-143.16-169-167-223.81,35.33-41.81,75.62-75.9,119.58-98.24Z"/></g><path class="cls-18" d="M677.22,2326.44c-64.12,0-127.61-33.05-172.33-91.63-64.23-84.14-81.87-216.66-48.38-363.58,39.95-175.28,143.31-328,263.33-389a16,16,0,1,1,14.5,28.49c-111.91,56.93-208.73,201.24-246.66,367.65-31.37,137.64-15.83,260.5,42.63,337.07,46.88,61.41,113.82,89.67,179.05,75.64,62-13.35,108.94-63.89,125.48-135.19,8.87-38.23,14.09-80.29,19.14-121,14.86-119.63,30.22-243.34,138.54-301.76a16,16,0,0,1,15.18,28.15c-93.8,50.59-107.49,160.83-122,277.55-5.16,41.5-10.49,84.41-19.73,124.27-19.42,83.67-75.45,143.19-149.9,159.21A184.07,184.07,0,0,1,677.22,2326.44Z"/><path class="cls-16" d="M619.79,902.53c25.66,26,55.69,41.47,81.09,15.28,6.94-7.14,13.24-16.17,21.09-27,12.18-16.76,28-37.94,55.72-63.47,58-53.58,105.08-65.64,129.38-79.11,12-6.66,18.4-13.63,17.93-26.11C922.61,659,878.84,613.05,779.21,596.78c-52-8.49-105.29,4.06-143.07,27.53-3.43,2.08-6.72,4.31-9.87,6.6-1,.71-1.92,1.4-2.85,2.14s-1.86,1.43-2.77,2.18-1.8,1.46-2.71,2.2a4.55,4.55,0,0,1-.58.49q-2,1.71-3.85,3.44c-.23.2-.46.43-.67.63-.82.77-1.63,1.54-2.42,2.32a98.27,98.27,0,0,0-18.91,25.29C539.3,772.55,575.4,857.62,619.79,902.53Z"/><g class="cls-2"><path class="cls-3" d="M636.14,624.31c151.78-56.84,245.06,79.12,270.93,123.92,12-6.66,18.4-13.63,17.93-26.11C922.61,659,878.84,613.05,779.21,596.78,727.22,588.29,673.92,600.84,636.14,624.31Z"/></g><g class="cls-17"><path class="cls-18" d="M619.79,902.53c25.66,26,55.69,41.47,81.09,15.28,6.94-7.14,13.24-16.17,21.09-27a73.88,73.88,0,0,1-50.49-22c-46.62-47.18-85.23-133-45.21-237.85-1,.71-1.92,1.4-2.85,2.14s-1.86,1.43-2.77,2.18-1.8,1.46-2.71,2.2a4.55,4.55,0,0,1-.58.49q-2,1.71-3.85,3.44c-.23.2-.46.43-.67.63-.82.77-1.63,1.54-2.42,2.32a98.27,98.27,0,0,0-18.91,25.29C539.3,772.55,575.4,857.62,619.79,902.53Z"/></g><path class="cls-18" d="M675.8,948.49h-.68C642.66,947.12,601,915.21,576,872.61c-21.1-36-49-111.22,1.21-210.22,29.6-58.38,102-94.62,180.12-90.17,87.44,5,158.09,57.59,189,140.76a16,16,0,0,1-30,11.13c-26.34-70.89-86.46-115.74-160.83-120-65.66-3.76-125.85,25.48-149.79,72.7-43.34,85.46-19.95,149.21-2.15,179.6,23.62,40.33,56.81,59.41,72.84,60.08a16,16,0,0,1-.66,32Z"/><path class="cls-16" d="M1674.8,729.9c-.75,51,52.91,25.07,138.08,106.49,44.81,42.84,46.23,57.32,63.55,75.83a65.1,65.1,0,0,0,93,2.13c45.17-44.14,82.74-128.55,32.34-232.41-24.16-49.77-106.42-87.69-186.4-76.08C1715.5,620.38,1675.73,666.7,1674.8,729.9Z"/><g class="cls-17"><path class="cls-18" d="M1857.84,887.53c6.45,9.26,11,16.59,18.58,24.7a65.1,65.1,0,0,0,93,2.11c45.16-44.12,82.75-128.54,32.35-232.4-6.79-14-18.19-27.06-32.84-38.35,39.17,101,1.17,182.68-43.93,226.74A69.35,69.35,0,0,1,1857.84,887.53Z"/></g><g class="cls-2"><path class="cls-3" d="M1960.6,635.91c-150.76-59.49-246.41,74.81-273.06,119.16-11.86-6.88-18.16-14-17.47-26.42,3.5-63.12,48.06-108.26,148-122.77C1870.16,598.3,1923.24,611.78,1960.6,635.91Z"/></g><path class="cls-18" d="M1912.92,959.32a16,16,0,0,1-.38-32c16-.39,49.55-18.89,73.87-58.8,18.33-30.08,42.84-93.41,1-179.62-23.12-47.63-82.76-77.88-148.5-75.31-74.43,2.93-135.33,46.71-162.9,117.13a16,16,0,1,1-29.77-11.66c32.34-82.6,103.9-134,191.41-137.42,78.24-3.1,149.95,34.42,178.52,93.3,48.47,99.87,19.26,174.58-2.46,210.22-25.69,42.16-67.92,73.33-100.4,74.12Z"/><g class="cls-8"><path class="cls-3" d="M1542,2567c-23.74,0-61.59,230.39,13.64,220.05C1611.61,2779.39,1565.75,2567,1542,2567Z"/></g><g class="cls-8"><path class="cls-3" d="M1115.59,2449.49c-23.74,0-66.45,182,8.78,171.62C1180.35,2613.41,1139.34,2449.49,1115.59,2449.49Z"/></g><g class="cls-8"><path class="cls-3" d="M1541.53,2449.49c-26.8,0-56.87,88.9,4.42,84.91C1591.55,2531.43,1560.87,2449.49,1541.53,2449.49Z"/></g><path class="cls-18" d="M771.78,2177.71c9.19,39.94,18.5,91.15-8.75,126.67-15.22,17.15-39.63-6.24-23.08-22.18,22.11-24,18.95-70.15,16.19-101.19-1.46-9.9,13-12.94,15.64-3.3Z"/><path class="cls-18" d="M595.8,2206.24c9.65,32,24.73,71.58,57.47,85.07,19.7,7.58,9.33,36.8-10.78,30.18-12.16-5.48-22-14.73-29.55-24-13.59-17.44-21.31-37.4-26.9-58.06a231.2,231.2,0,0,1-6-30.49,8,8,0,0,1,15.75-2.69Z"/><g class="cls-2"><path class="cls-3" d="M544.71,1824.13c-24.85,48.58-32.44,167.39-13.16,184.31,33.48,29.4,50.78-74.79,60.18-48.9s34.8,32,50.32-25.39c16-59.17,8.46-123.66-28.22-93.57C575.37,1872.14,585.12,1745.13,544.71,1824.13Z"/></g><path class="cls-16" d="M1571,1747.2c136.92,73.86,115.1,263.18,149.71,412.29,39.49,170.22,228.13,202.72,332.8,65.63,16.35-21.42,29.26-45.76,38.89-72.3,59.63-163.58-3.24-409.58-128.81-558.13-35.33-41.81-75.62-75.9-119.58-98.24Z"/><g class="cls-17"><path class="cls-18" d="M1571,1747.2c136.92,73.86,115.1,263.18,149.71,412.29,39.49,170.22,228.13,202.72,332.8,65.63,16.35-21.42,29.26-45.76,38.89-72.3-66.1,76.9-173.49,101.88-242.84,58.75-104.35-64.86-142.92-313.14-53-393.07,94.52-84,143.16-169,167-223.81-35.33-41.81-75.62-75.9-119.58-98.24Z"/></g><path class="cls-18" d="M1893.86,2326.44a184.64,184.64,0,0,1-38.87-4.13c-74.45-16-130.49-75.55-149.9-159.22-9.25-39.86-14.57-82.77-19.73-124.27-14.49-116.72-28.18-227-122-277.55a16,16,0,0,1,15.18-28.15c108.32,58.42,123.68,182.13,138.53,301.76,5.05,40.68,10.28,82.75,19.15,121,16.54,71.3,63.45,121.84,125.48,135.19,65.24,14,132.17-14.23,179-75.64,58.46-76.57,74-199.43,42.63-337.07-37.93-166.41-134.75-310.72-246.66-367.65a16,16,0,1,1,14.5-28.49c120,61,223.38,213.76,263.33,389,33.49,146.91,15.85,279.43-48.38,363.57C2021.47,2293.38,1958,2326.43,1893.86,2326.44Z"/><path class="cls-18" d="M1814.94,2181c-2.76,31-5.92,77.21,16.19,101.19,16.76,16.2-8.49,39.69-23.45,21.73-21.68-28.57-18.72-63.67-14.54-96.28a287.12,287.12,0,0,1,6.16-29.94,8,8,0,0,1,15.64,3.3Z"/><path class="cls-18" d="M1991,2208.93c-4.55,31.66-13.11,62.56-32.89,88.55-9.9,11.86-35.61,38.5-49.17,16.3a16,16,0,0,1,6.84-21.6,60.72,60.72,0,0,0,21.42-13.29c19.2-19.07,30.71-46.74,38-72.65,2.28-9.79,16.9-7.28,15.76,2.69Z"/><g class="cls-2"><path class="cls-3" d="M2026.36,1824.13c24.85,48.58,32.45,167.39,13.17,184.31-33.48,29.4-50.78-74.79-60.19-48.9s-34.79,32-50.31-25.39c-16-59.17-8.46-123.66,28.21-93.57C1995.71,1872.14,1986,1745.13,2026.36,1824.13Z"/></g><path class="cls-3" d="M571.58,1368.26q.74,13.9,2.37,25.7c11.17,80.93,33.59,171.34,114.34,254.5,37.67,38.81,83.41,69.79,156.25,103.83,67.75,31.55,237,78.88,439,80.49,202,2.19,372-42,440.21-72.28,73.42-32.64,119.65-62.75,158-100.85,82.1-81.59,105.94-171.61,118.42-252.32a341,341,0,0,0,3.34-35.66c6.4-133.54-39.13-385.56-122.78-499.17-35.22-47.77-71.14-92.34-114.43-131.8-91.47-83.33-215.64-143.55-434.39-161.82q-19-1.57-38.11-1.7c-12.72-.13-25.44.17-38.16,1C1034.42,592.47,909,651.42,815.8,734.36c-42.63,38-78.47,81-113.65,127.08C614.47,976.33,564.53,1237.52,571.58,1368.26Z"/><g class="cls-17"><path class="cls-18" d="M1977.74,1504.48c-17.31,52.16-45.76,105.23-96,155.15-38.29,38.13-84.53,68.22-158,100.88-68.22,30.33-238.2,74.46-440.19,72.26-202.08-1.6-371.29-48.92-439-80.5-72.86-34-118.62-65-156.27-103.79-47.8-49.2-75.14-101-91.8-151.75a423.3,423.3,0,0,0,50.36,62.5c40.28,41.49,89.2,74.62,167.06,111,72.46,33.73,253.35,84.33,469.41,86,216,2.36,397.67-44.84,470.64-77.26,78.5-34.89,127.9-67.1,168.9-107.83A423.38,423.38,0,0,0,1977.74,1504.48Z"/></g><path class="cls-18" d="M1370.87,1465.32a140.55,140.55,0,0,1-6,41.1c-12.39,40.81-42.78,69.63-78.32,69.63s-65.92-28.82-78.31-69.63a140.55,140.55,0,0,1-6-41.1c0-61.18,37.77-110.74,84.36-110.74S1370.87,1404.14,1370.87,1465.32Z"/><path class="cls-19" d="M1364.83,1506.42c-12.39,40.81-42.78,69.63-78.32,69.63s-65.92-28.82-78.31-69.63a60.53,60.53,0,0,1,78.35.82,60.44,60.44,0,0,1,78.28-.82Z"/><path class="cls-18" d="M1286.52,1588.05c-53.13,0-96.36-55.06-96.36-122.74s43.23-122.73,96.36-122.73,96.35,55.06,96.35,122.73S1339.65,1588.05,1286.52,1588.05Zm0-221.49c-39.91,0-72.38,44.3-72.38,98.75s32.47,98.75,72.38,98.75,72.37-44.29,72.37-98.75S1326.43,1366.56,1286.52,1366.56Z"/><path class="cls-18" d="M1301.16,1848.87c-4.92,0-9.84,0-14.81-.08-217.11-1.74-386.4-54.43-445.58-82-73-34.06-121.15-66.11-161-107.15-84.59-87.09-107.45-182.06-118.66-263.46-17.15-124.57,34.84-418,131.3-544.37,111.16-145.62,230.42-267.91,565.21-289.54,12.74-.82,26-1.18,39.31-1s26.59.72,39.29,1.78c334.37,27.9,451.6,152.41,560.36,300.08C1991,991.19,2038.14,1285.55,2019,1409.78c-12.55,81.19-37,175.71-123,261.21-40.54,40.29-89.21,71.44-162.76,104.13C1675,1801,1511.21,1848.86,1301.16,1848.87Zm-9.5-1255.75c-10.87,0-21.61.34-32,1-321.36,20.76-435.52,137.74-541.85,277-90.4,118.42-141.1,404-125,520.61,10.5,76.27,31.77,165.08,109.92,245.54,37,38.1,82.33,68.14,151.59,100.46,57,26.6,220.71,77.35,432.36,79,211.64,2.23,376.19-45.4,433.61-70.92,69.77-31,115.59-60.2,153.19-97.58,79.44-79,102.16-167.37,113.91-243.43,18-116.28-28.08-402.79-116.53-522.89-104-141.27-216.29-260.39-537.28-287.18-11.91-1-24.34-1.55-36.93-1.67C1295,593.13,1293.31,593.12,1291.66,593.12Z"/><path class="cls-3" d="M1419.65,1406.78c-7.06,104.36-133.37,4.55-133.37,4.55s-126.41,99.81-133.46-4.55c0,0,29.88-138.61,133.7-138.61S1419.65,1406.78,1419.65,1406.78Z"/><g class="cls-17"><path class="cls-18" d="M1418.36,1417.47c-14.86,86.49-132.09-6.15-132.09-6.15s-118.06,93.24-132.33,5.31c48.52,10.79,135-70.22,135-70.22S1369.08,1421.47,1418.36,1417.47Z"/></g><path class="cls-18" d="M1430.24,1407.5c.8,43.77-27.55,69.15-71,58.7-31.63-7.85-57.1-23.49-82.86-42.32h19.82c-25.53,19-51,35.17-82.83,42.64-42.92,10.25-72.18-15.69-68.95-59.17.58-9.85,14.7-10.88,16.77-1.36,2.4,11.22,6.34,24.57,15.28,30.76,19.44,10.56,47.13-5.68,65.68-15.43a302.86,302.86,0,0,0,34.23-22.54,16.17,16.17,0,0,1,19.83,0c21.35,15.9,73.91,53.35,99.57,37.68,8.38-6.42,11.69-19.54,13.31-30.6,2-13,21.16-11.51,21.16,1.64Z"/><path class="cls-18" d="M1293.92,1327.79c1.47,21.64,5.68,54.6,8.27,76.48,1.89,21.27-28.91,25-32.11,3.84-1.06-1,6.49-40.62,6.72-42.95,2.16-11.45,4.89-27.08,7.53-38.38,1.22-5.52,9.56-4.6,9.59,1Z"/><path class="cls-18" d="M1190.22,1324.11c-.56,30.91,40.88,56.74,92.57,57.68s94-23.34,94.61-54.25-41.37-29.51-93.06-30.45S1190.79,1293.2,1190.22,1324.11Z"/><g class="cls-2"><path class="cls-3" d="M1245.91,1319.39c-.15,8.09,15.21,14.94,34.29,15.29s34.68-5.93,34.83-14-15.34-7.81-34.42-8.16S1246.06,1311.3,1245.91,1319.39Z"/></g><path class="cls-16" d="M900.07,959.38C892.75,948,951.2,822.18,1043.25,849.1c33.72,9.86,28.19,39.61,8.76,49.08-18.51,9-47.21,8.46-71,18.47C934.77,936.17,907.38,970.73,900.07,959.38Z"/><path class="cls-16" d="M1672.3,959.38c7.32-11.35-51.13-137.2-143.18-110.28-33.72,9.86-28.19,39.61-8.76,49.08,18.51,9,47.21,8.46,71,18.47C1637.6,936.17,1665,970.73,1672.3,959.38Z"/><path class="cls-16" d="M1040.37,1422.72c62.46-17.67,136.23-64.54,121.55-185.7-15.27-126-50.68-161.42-144.83-167.55-97.6-6.35-207.51,47-268.42,128.73-44.06,59.13-57.58,145.7-24.89,195.41,27.23,41.41,67.06,59.2,151.76,54.88S1001.27,1433.79,1040.37,1422.72Z"/><path class="cls-16" d="M1532,1422.72c-62.46-17.67-136.23-64.54-121.55-185.7,15.27-126,50.68-161.42,144.83-167.55,97.6-6.35,207.51,47,268.42,128.73,44.06,59.13,57.58,145.7,24.89,195.41-27.23,41.41-67.06,59.2-151.76,54.88S1571.1,1433.79,1532,1422.72Z"/><ellipse class="cls-18" cx="983.52" cy="1252.1" rx="124.7" ry="98.02" transform="translate(-370.22 2090.22) rotate(-83.61)"/><ellipse class="cls-3" cx="1017.04" cy="1227.46" rx="45.52" ry="26.37" transform="translate(-315.94 2101.63) rotate(-83.61)"/><g class="cls-20"><ellipse class="cls-3" cx="934.74" cy="1307.59" rx="14.1" ry="27.52" transform="translate(-470.57 527.44) rotate(-25.4)"/></g><ellipse class="cls-18" cx="1585.16" cy="1252.1" rx="98.02" ry="124.7" transform="translate(-129.45 184.11) rotate(-6.39)"/><ellipse class="cls-3" cx="1551.63" cy="1227.46" rx="26.37" ry="45.52" transform="translate(-126.92 180.23) rotate(-6.39)"/><g class="cls-20"><ellipse class="cls-3" cx="1633.94" cy="1307.59" rx="27.52" ry="14.1" transform="translate(-248.17 2222.57) rotate(-64.6)"/></g><ellipse class="cls-21" cx="1793.14" cy="1470.16" rx="83.07" ry="63.38"/><ellipse class="cls-21" cx="774.48" cy="1470.16" rx="83.07" ry="63.38"/></g></g></svg>